<svg xmlns="http://www.w3.org/2000/svg" viewBox="0 0 369.62 369.62"><defs><style>.cls-1{fill:#0da6ab;}.cls-2{fill:#fff;}</style></defs><g id="Layer_2" data-name="Layer 2"><g id="Layer_1-2" data-name="Layer 1"><rect class="cls-1" width="369.62" height="369.62" rx="81.96"/><path class="cls-2" d="M261.33,112.86c-3.68,0-7.61.25-11.42.63-32,4.7-53.3,27.67-65.1,45.31-12.06-17.64-33.5-40.61-65.23-45.31-3.8-.38-7.61-.63-11.42-.63a73.35,73.35,0,0,0-74.49,72,73.35,73.35,0,0,0,74.49,71.95,92.75,92.75,0,0,0,11.68-.76c32-4.57,53.3-27.54,65.22-45.17,12.06,17.63,33.38,40.6,65.23,45.3,3.93.38,7.61.63,11.55.63A73.35,73.35,0,0,0,336,184.81,73.35,73.35,0,0,0,261.33,112.86ZM116,230.49h-.13a42,42,0,0,1-8,.51,47.84,47.84,0,0,1-48.86-46.44,48,48,0,0,1,49-46.45c2.53,0,5.33.26,8,.51,30.08,4.44,48.48,33.88,54.69,45.94C164.38,196.61,146,226.43,116,230.49Zm145.3.77c-2.54,0-5.33-.26-7.87-.51-30-4.44-48.47-34.14-54.69-45.94h-.13c6.22-11.8,24.62-41.49,54.69-45.94a41.63,41.63,0,0,1,7.87-.5,47.72,47.72,0,0,1,49.11,46.28v.16A48,48,0,0,1,261.33,231.26Z"/><rect class="cls-2" x="87.23" y="177.58" width="44.79" height="14.72"/><polygon class="cls-2" points="266.28 162.48 251.94 162.48 251.94 177.71 236.71 177.71 236.71 192.3 251.94 192.3 251.94 207.27 266.53 207.27 266.53 192.43 266.4 192.3 281.51 192.3 281.51 177.58 266.28 177.58 266.28 162.48"/></g></g></svg>