<svg xmlns="http://www.w3.org/2000/svg" viewBox="0 0 369.62 369.62"><defs><style>.cls-1{fill:#fff;}.cls-2{fill:#231f20;}</style></defs><g id="Layer_2" data-name="Layer 2"><g id="Layer_1-2" data-name="Layer 1"><rect class="cls-1" width="369.62" height="369.62" rx="81.96"/><path class="cls-2" d="M70,31.3v9.16H86.14V149.05H70V158H171.62V126.37H161.15v21.37H103.37V40.46H119.5V31.3Zm166.8,9.6L191.46,158.64H180.34v9.16H216.1v-9.16h-14L212.83,131H266l10.69,27.69H262.54v9.16h46.23v-9.16H296.34L251,40.9Zm2.84,20.49,23.11,60.4H216.32ZM33.81,168.67v29.88H44.28V178.92H81.56V286.64H65.43v8.94h49.49v-8.94H98.79V178.92h37.29v19.63h10.24V168.67Zm180.55,8.94v8.94h13.51l37.07,55.61-36.41,53.2H213.92v8.94h41.87v-8.94H239.43l31-45.35,30.31,45.35h-15v8.94h50.15v-8.94H322.29l-40.12-60,33.58-48.85h14.39v-8.94H288.49v8.94h16.36l-27.91,41-27.26-41h15.05v-8.94Zm-93.77,34v8.94h16.14V329.38H120.59v8.94H224.17V310.19H213.7v17.66H154.17v-53H195.6v15.92h10.47v-42.3H195.6V264.4H154.17V221.88h58.22v17.88h10.47V211.63Z"/></g></g></svg>