<svg xmlns="http://www.w3.org/2000/svg" viewBox="0 0 1024.02 1024"><defs><style>.cls-1{fill:#fff;}.cls-2{fill:#1c75bc;}</style></defs><g id="Layer_2" data-name="Layer 2"><g id="Layer_1-2" data-name="Layer 1"><rect class="cls-1" x="75.95" y="204.27" width="843.84" height="627.62"/><path class="cls-2" d="M795.56,0H230C102.24,0,0,102.24,0,230V794c0,127.8,102.24,230,230,230H794c127.8,0,230-102.24,230-230V226.85C1025.6,102.24,923.36,0,795.56,0ZM624.62,749.23H522.38V420.14l-16,22.37v3.19l-9.59,12.78L372.22,647,327.49,576.7l-31.95-51.12L247.61,445.7l-9.58-16v-3.2l-16-25.56c0,38.34,3.2,63.9,3.2,83.07V747.63H121.41V273.17H281.16l89.46,131,92.66-131H626.22V750.83h-1.6Zm177.33,0L696.51,608.65h54.32V273.17H853.07V613.44h54.31L802,749.23Z"/></g></g></svg>