<svg xmlns="http://www.w3.org/2000/svg" xmlns:xlink="http://www.w3.org/1999/xlink" viewBox="0 0 426 426"><defs><style>.cls-1{fill:none;}.cls-2,.cls-4,.cls-5,.cls-6{fill-rule:evenodd;}.cls-2{fill:url(#linear-gradient);}.cls-3{clip-path:url(#clip-path);}.cls-4{fill:#fefefe;}.cls-5{fill:url(#linear-gradient-2);}.cls-6{fill:url(#linear-gradient-3);}</style><linearGradient id="linear-gradient" x1="6681.45" y1="-8982.13" x2="20524.46" y2="-22952.15" gradientTransform="matrix(0.03, 0, 0, -0.03, -82.52, -189.87)" gradientUnits="userSpaceOnUse"><stop offset="0" stop-color="#85e31c"/><stop offset="0.37" stop-color="#2cc02b"/><stop offset="1" stop-color="#298822"/></linearGradient><clipPath id="clip-path"><polygon class="cls-1" points="71.58 100.76 334.2 100.76 334.2 366.71 71.58 366.71 71.58 100.76 71.58 100.76"/></clipPath><linearGradient id="linear-gradient-2" x1="7362.7" y1="-10100.01" x2="9272.48" y2="-11995.66" gradientTransform="matrix(0.03, 0, 0, -0.03, -82.52, -189.87)" gradientUnits="userSpaceOnUse"><stop offset="0" stop-color="#c6c6c6"/><stop offset="0.61" stop-color="#e2e2e2"/><stop offset="1" stop-color="#fefefe"/></linearGradient><linearGradient id="linear-gradient-3" x1="9226.89" y1="-12812.66" x2="13841.23" y2="-17765.66" gradientTransform="matrix(0.03, 0, 0, -0.03, -82.52, -189.87)" gradientUnits="userSpaceOnUse"><stop offset="0" stop-color="#c6c6c6"/><stop offset="0.67" stop-color="#e2e2e2"/><stop offset="1" stop-color="#fefefe"/></linearGradient></defs><g id="Layer_2" data-name="Layer 2"><g id="Layer_1-2" data-name="Layer 1"><g id="Camada_1"><g id="_883927472" data-name=" 883927472"><path class="cls-2" d="M139.46,0H426V286.54C426,363.24,363.24,426,286.54,426H139.46C62.76,426,0,363.24,0,286.54V139.46C0,62.76,62.76,0,139.46,0Z"/><path class="cls-4" d="M321.19,333.42c2.41-2.47,6.89-6.95,9.69-9.63s3.92-3.54,4.94-4a4.33,4.33,0,0,1,2.65-.53,2.42,2.42,0,0,1,1.56,1,4.71,4.71,0,0,1,.74,2c.19,1,.36,2.34.64,4.29s.65,4.48.94,6.69a43.62,43.62,0,0,1,.46,5.4,4.3,4.3,0,0,1-.8,2.7,11.12,11.12,0,0,1-2.06,2.11,5.12,5.12,0,0,1-2.22,1.09,10.37,10.37,0,0,1-2.82,0c-1.1-.09-2.38-.24-3.58-.41s-2.32-.38-3.46-.57l-3.6-.56c-1.31-.2-2.79-.42-3.82-.64a4.59,4.59,0,0,1-2.05-.75,2.51,2.51,0,0,1-.79-1.31,3.44,3.44,0,0,1-.13-1.61,6.11,6.11,0,0,1,.68-1.79c.3-.55.62-1,3-3.47Z"/><path class="cls-4" d="M121.55,88.33c8.91-8.18,16.69-9.18,24.08-3.5,116.8,116.8,175.58,174.94,175.58,174.94q11.15,10.28,13.27,21.52,1.51,10.27,2.68,20.1a5.6,5.6,0,0,1-.81,3.31q-2.61,5.73-10.19,11.84l-17.33,16.87c-3.41,3.84-11.59,2-17.47.78-13.29-2.68-14.51-.53-25.43-10.83L91,148.46q-8.39-7.52-8.18-11.55a21.12,21.12,0,0,1,0-3.83c.45-4.17,3.51-8.64,6-12a65.48,65.48,0,0,1,7-7.66q10.5-10.87,25.65-25.13Z"/><path class="cls-5" d="M107.56,102.16a4.08,4.08,0,0,0-.37,2.53,9.71,9.71,0,0,0,.67,2.42,12.17,12.17,0,0,0,1.42,2.46,44.59,44.59,0,0,0,4.38,4.83c3,3,8.09,8.19,12.5,12.65s8.12,8.24,12.35,12.49,9,9,11.7,11.6,3.29,3.15,3.58,3.4.26.22,5.36-4.94,15.31-15.45,20.43-20.59,5.13-5.13,5.11-5.15l-6.5-6.49L152.57,91.76c-6.4-6.39-6.39-6.38-6.73-6.65s-1.05-.82-1.87-1.34a16.74,16.74,0,0,0-2.74-1.39,13.62,13.62,0,0,0-3.1-.84,15,15,0,0,0-6.44.5,14.1,14.1,0,0,0-2.81,1.16,34.56,34.56,0,0,0-3.59,2.2A39.43,39.43,0,0,0,122,88c-1,.86-1.89,1.71-3.05,2.8s-2.56,2.43-4.12,3.93-3.29,3.16-4.6,4.43a14.63,14.63,0,0,0-2.68,3Z"/><path class="cls-6" d="M336.35,304.7a23.68,23.68,0,0,1-3.14,5q-9.56-.6-15.46-1.41-11.07-.51-25.81-14.85L168.42,169.51l-28,28.32-6.34-6.33,59.09-59.19L325.09,263.67a36.74,36.74,0,0,1,9.39,17.62q2.55,19,2.54,19a5.7,5.7,0,0,1-.67,4.44Z"/></g></g></g></g></svg>