<svg xmlns="http://www.w3.org/2000/svg" xmlns:xlink="http://www.w3.org/1999/xlink" viewBox="0 0 1017.26 1017.26"><defs><style>.cls-1{fill:#fff;}.cls-2{fill:url(#linear-gradient);}.cls-3{fill:url(#linear-gradient-2);}.cls-4{fill:url(#linear-gradient-3);}.cls-5{fill:url(#linear-gradient-4);}.cls-6{fill:url(#linear-gradient-5);}</style><linearGradient id="linear-gradient" x1="397.22" y1="866.39" x2="861.28" y2="866.39" gradientTransform="matrix(1, 0, 0, -1, 0, 1285.9)" gradientUnits="userSpaceOnUse"><stop offset="0" stop-color="#21d789"/><stop offset="1" stop-color="#07c3f2"/></linearGradient><linearGradient id="linear-gradient-2" x1="-154.96" y1="509.15" x2="800.62" y2="1214.55" gradientTransform="matrix(1, 0, 0, -1, 0, 1285.9)" gradientUnits="userSpaceOnUse"><stop offset="0.01" stop-color="#fcf84a"/><stop offset="0.11" stop-color="#a7eb62"/><stop offset="0.21" stop-color="#5fe077"/><stop offset="0.27" stop-color="#32da84"/><stop offset="0.31" stop-color="#21d789"/><stop offset="0.58" stop-color="#21d789"/><stop offset="0.6" stop-color="#21d789"/><stop offset="0.69" stop-color="#20d68c"/><stop offset="0.76" stop-color="#1ed497"/><stop offset="0.83" stop-color="#19d1a9"/><stop offset="0.9" stop-color="#13ccc2"/><stop offset="0.97" stop-color="#0bc6e1"/><stop offset="1" stop-color="#07c3f2"/></linearGradient><linearGradient id="linear-gradient-3" x1="222.72" y1="302.09" x2="382.1" y2="802.21" gradientTransform="matrix(1, 0, 0, -1, 0, 1285.9)" gradientUnits="userSpaceOnUse"><stop offset="0" stop-color="#21d789"/><stop offset="0.16" stop-color="#24d788"/><stop offset="0.3" stop-color="#2fd886"/><stop offset="0.44" stop-color="#41da82"/><stop offset="0.56" stop-color="#5adc7d"/><stop offset="0.69" stop-color="#7ae077"/><stop offset="0.81" stop-color="#a1e36e"/><stop offset="0.93" stop-color="#cfe865"/><stop offset="1" stop-color="#f1eb5e"/></linearGradient><linearGradient id="linear-gradient-4" x1="433.39" y1="737.15" x2="780.21" y2="1203.46" gradientTransform="matrix(1, 0, 0, -1, 0, 1285.9)" gradientUnits="userSpaceOnUse"><stop offset="0" stop-color="#21d789"/><stop offset="0.06" stop-color="#24d788"/><stop offset="0.11" stop-color="#2fd886"/><stop offset="0.16" stop-color="#41da82"/><stop offset="0.21" stop-color="#5add7d"/><stop offset="0.25" stop-color="#79e077"/><stop offset="0.26" stop-color="#7ce076"/><stop offset="0.5" stop-color="#8ce173"/><stop offset="0.92" stop-color="#b2e56b"/></linearGradient><linearGradient id="linear-gradient-5" x1="964.14" y1="677.56" x2="265.31" y2="684.03" gradientTransform="matrix(1, 0, 0, -1, 0, 1285.9)" gradientUnits="userSpaceOnUse"><stop offset="0.39" stop-color="#fcf84a"/><stop offset="0.54" stop-color="#ecf451"/><stop offset="0.83" stop-color="#c2e964"/><stop offset="0.92" stop-color="#b2e56b"/></linearGradient></defs><g id="Layer_2" data-name="Layer 2"><g id="Layer_1-2" data-name="Layer 1"><rect class="cls-1" width="1017.26" height="1017.26" rx="226.7"/><polygon class="cls-2" points="665.71 241.27 892.96 431.77 811.64 597.75 673.5 559.88 555.42 559.88 665.71 241.27"/><polygon class="cls-3" points="436.22 364.93 391.66 597.75 387.21 677.96 276.92 725.86 118.73 742.57 166.63 237.93 451.82 118.73 627.83 234.59 436.22 364.93"/><polygon class="cls-4" points="436.22 364.93 457.39 814.98 386.09 898.53 118.73 742.57 338.19 415.06 436.22 364.93"/><polygon class="cls-5" points="730.32 331.51 459.62 331.51 699.13 118.73 730.32 331.51"/><polygon class="cls-6" points="898.53 816.1 660.13 897.42 343.76 808.3 436.22 364.93 472.98 331.51 665.71 313.68 647.88 507.52 801.61 448.48 898.53 816.1"/><rect x="268.01" y="268.01" width="481.25" height="481.25"/><rect class="cls-1" x="313.68" y="659.02" width="180.47" height="30.08"/><path class="cls-1" d="M311.45,331.51h81.33c47.9,0,76.86,27.85,76.86,69.06v1.12c0,45.67-35.65,70.18-80.21,70.18H356v59H312.57V331.51Zm79.1,100.26c22.28,0,34.53-13.37,34.53-30.08v-1.12c0-20.05-13.37-30.07-35.65-30.07H356v61.27Z"/><path class="cls-1" d="M487.47,431.77h0c0-56.82,42.33-103.61,103.6-103.61,37.87,0,60.15,12.26,79.09,31.2l-27.85,32.3c-15.59-14.48-31.19-22.28-51.24-22.28-33.42,0-57.93,27.85-57.93,62.39v-1.12c0,34.54,23.39,62.39,57.93,62.39,22.28,0,36.76-8.92,52.36-23.4l27.85,27.85c-20.06,22.28-43.45,35.65-81.33,35.65-59,1.11-102.48-44.56-102.48-101.37"/></g></g></svg>