<svg xmlns="http://www.w3.org/2000/svg" xmlns:xlink="http://www.w3.org/1999/xlink" viewBox="0 0 1017.26 1017.26"><defs><style>.cls-1,.cls-2{fill:#fff;}.cls-1,.cls-8{fill-rule:evenodd;}.cls-3{mask:url(#mask);}.cls-4{fill:#0065a9;}.cls-5{fill:#007acc;}.cls-6{fill:#1f9cf0;}.cls-7{opacity:0.25;}.cls-8{fill:url(#linear-gradient);}</style><mask id="mask" x="151.69" y="153.74" width="713.89" height="709.78" maskUnits="userSpaceOnUse"><g id="mask0"><path class="cls-1" d="M658.05,860.49a44.46,44.46,0,0,0,35.39-1.36l146.89-70.68a44.61,44.61,0,0,0,25.25-40.19V269a44.61,44.61,0,0,0-25.25-40.19L693.44,158.14a44.42,44.42,0,0,0-45.37,4.09,42.92,42.92,0,0,0-5.31,4.54L361.56,423.31l-122.49-93A29.69,29.69,0,0,0,201.13,332l-39.28,35.74a29.74,29.74,0,0,0,0,44L268,508.63,161.81,605.54a29.75,29.75,0,0,0,0,44l39.28,35.73a29.71,29.71,0,0,0,37.94,1.69l122.49-93L642.76,850.5A44.39,44.39,0,0,0,658.05,860.49Zm29.27-513.82L474,508.63l213.37,162Z"/></g></mask><linearGradient id="linear-gradient" x1="508.41" y1="1097.5" x2="508.41" y2="387.72" gradientTransform="matrix(1, 0, 0, -1, 0, 1251.24)" gradientUnits="userSpaceOnUse"><stop offset="0" stop-color="#fff"/><stop offset="1" stop-color="#fff" stop-opacity="0"/></linearGradient></defs><g id="Layer_2" data-name="Layer 2"><g id="Layer_1-2" data-name="Layer 1"><rect class="cls-2" width="1017.26" height="1017.26" rx="226.7"/><g class="cls-3"><path class="cls-4" d="M840.33,228.93l-147-70.78a44.44,44.44,0,0,0-50.71,8.62L161.39,605.54a29.72,29.72,0,0,0,0,44l39.31,35.74a29.73,29.73,0,0,0,38,1.69L818.21,247.29c19.44-14.75,47.37-.88,47.37,23.52v-1.7A44.6,44.6,0,0,0,840.33,228.93Z"/><path class="cls-5" d="M840.33,788.33l-147,70.78a44.44,44.44,0,0,1-50.71-8.61L161.39,411.72a29.72,29.72,0,0,1,0-44L200.73,332a29.72,29.72,0,0,1,38-1.68L818.21,770c19.44,14.75,47.37.88,47.37-23.52v1.71A44.59,44.59,0,0,1,840.33,788.33Z"/><path class="cls-6" d="M693.33,859.13a44.47,44.47,0,0,1-50.71-8.64C659.08,867,687.21,855.3,687.21,832V185.24c0-23.27-28.13-34.93-44.59-18.47a44.45,44.45,0,0,1,50.71-8.63l147,70.68A44.61,44.61,0,0,1,865.58,269V748.26a44.61,44.61,0,0,1-25.27,40.19Z"/><g class="cls-7"><path class="cls-8" d="M657.61,860.49A44.46,44.46,0,0,0,693,859.13l146.89-70.68a44.59,44.59,0,0,0,25.25-40.19V269a44.59,44.59,0,0,0-25.25-40.19L693,158.14a44.4,44.4,0,0,0-50.68,8.63L361.12,423.31l-122.48-93A29.69,29.69,0,0,0,200.7,332l-39.29,35.74a29.74,29.74,0,0,0,0,44L267.6,508.63,161.38,605.54a29.74,29.74,0,0,0,0,44l39.29,35.74a29.71,29.71,0,0,0,37.94,1.69l122.48-93L642.32,850.5A44.39,44.39,0,0,0,657.61,860.49Zm29.28-513.82-213.37,162,213.37,162Z"/></g></g></g></g></svg>