<svg xmlns="http://www.w3.org/2000/svg"  viewBox="0 0 333333 333333" shape-rendering="geometricPrecision" text-rendering="geometricPrecision" image-rendering="optimizeQuality" fill-rule="evenodd" clip-rule="evenodd"><path d="M302077 0H31255C14069 0 1 14068 1 31256v270822c0 17186 14068 31254 31254 31254h270822c17186 0 31254-14068 31254-31254l2-270824C333333 14068 319265 0 302079 0h-2zm-74265 103807V67887h-35916l-3594 3632-16975 32303-5315 3591h-60501v49307h33261l2979 3591-36225 69218v35916l35920-7 3591-3632 16976-32296 5315-3594 60496 7 1-49310h-33258l-2978-3632 36225-69173z" fill="#05cc47"/></svg>