<?xml version="1.0" ?><!DOCTYPE svg  PUBLIC '-//W3C//DTD SVG 1.1//EN'  'http://www.w3.org/Graphics/SVG/1.1/DTD/svg11.dtd'><svg height="512px" style="enable-background:new 0 0 512 512;" version="1.1" viewBox="0 0 512 512" width="512px" xml:space="preserve" xmlns="http://www.w3.org/2000/svg" xmlns:xlink="http://www.w3.org/1999/xlink"><g id="_x31_30-flickr"><g><path d="M436.714,26.001H75.287c-27.21,0-49.285,22.075-49.285,49.286v361.427    c0,27.211,22.075,49.285,49.285,49.285h361.427c27.211,0,49.284-22.074,49.284-49.285V75.287    C485.998,48.076,463.925,26.001,436.714,26.001z" style="fill:#0D64D2;"/><path d="M174.371,320.687c-36.041,0-65.2-29.16-65.2-65.199s29.159-65.2,65.2-65.2    c36.039,0,65.201,29.161,65.201,65.2S210.41,320.687,174.371,320.687z" style="fill:#FFFFFF;"/><path d="M337.63,320.687c-36.041,0-65.201-29.16-65.201-65.199s29.16-65.2,65.201-65.2    c36.039,0,65.199,29.161,65.199,65.2S373.669,320.687,337.63,320.687z" style="fill:#E50073;"/></g></g><g id="Layer_1"/></svg>