<svg xmlns="http://www.w3.org/2000/svg" viewBox="0 0 369.62 369.62"><defs><style>.cls-1{fill:#fff;}.cls-2{fill:#1a285f;fill-rule:evenodd;}</style></defs><g id="Layer_2" data-name="Layer 2"><g id="Layer_1-2" data-name="Layer 1"><rect class="cls-1" width="369.62" height="369.62" rx="81.96"/><path class="cls-2" d="M324,184.81a139.18,139.18,0,1,0-139.18,139.1A139.15,139.15,0,0,0,324,184.81ZM159.48,107.53c-1.1,2.15-1.1,5-1.1,10.58V150a10.68,10.68,0,0,0,.18,2.75,5.13,5.13,0,0,0,.76,1.6,11.21,11.21,0,0,0,2,1.88l8.06,6.54c1.32,1.07,2,1.6,2.21,2.24a2.51,2.51,0,0,1,0,1.75c-.24.64-.89,1.17-2.21,2.24l-8.06,6.54a11.21,11.21,0,0,0-2,1.88,5.24,5.24,0,0,0-.76,1.6,10.68,10.68,0,0,0-.18,2.75v69.78c0,5.62,0,8.43,1.1,10.57a10,10,0,0,0,4.38,4.39c2.15,1.09,5,1.09,10.59,1.09h20.72c5.63,0,8.44,0,10.58-1.09a10,10,0,0,0,4.39-4.39c1.1-2.14,1.1-4.95,1.1-10.57V219.66a10.68,10.68,0,0,0-.18-2.75,5.13,5.13,0,0,0-.76-1.6,11.21,11.21,0,0,0-2-1.88l-8.06-6.54c-1.32-1.07-2-1.6-2.21-2.24a2.51,2.51,0,0,1,0-1.75c.24-.64.89-1.17,2.21-2.24l8.06-6.55a10.9,10.9,0,0,0,2-1.87,5.24,5.24,0,0,0,.76-1.6,10.72,10.72,0,0,0,.18-2.76V118.11c0-5.62,0-8.43-1.1-10.58a10,10,0,0,0-4.39-4.38c-2.14-1.09-4.95-1.09-10.58-1.09H174.45c-5.63,0-8.44,0-10.59,1.09A10.07,10.07,0,0,0,159.48,107.53Z"/></g></g></svg>