<svg xmlns="http://www.w3.org/2000/svg" xmlns:xlink="http://www.w3.org/1999/xlink" viewBox="0 0 369.62 369.62"><defs><style>.cls-1,.cls-3{fill:#fff;}.cls-2,.cls-3,.cls-4{fill-rule:evenodd;}.cls-2{fill:url(#linear-gradient);}.cls-4{fill:url(#linear-gradient-2);}</style><linearGradient id="linear-gradient" x1="-732.85" y1="816.57" x2="-731.85" y2="816.57" gradientTransform="matrix(217.6, 0, 0, -255.47, 159544.16, 208795.56)" gradientUnits="userSpaceOnUse"><stop offset="0" stop-color="#f50"/><stop offset="0.41" stop-color="#f50"/><stop offset="0.58" stop-color="#ff2000"/><stop offset="1" stop-color="#ff2000"/></linearGradient><linearGradient id="linear-gradient-2" x1="-732.06" y1="815.11" x2="-731.09" y2="815.11" gradientTransform="matrix(180.61, 0, 0, -46.03, 132314.94, 37602.84)" gradientUnits="userSpaceOnUse"><stop offset="0" stop-color="#ff452a"/><stop offset="1" stop-color="#ff2000"/></linearGradient></defs><g id="Layer_2" data-name="Layer 2"><g id="Layer_1-2" data-name="Layer 1"><rect class="cls-1" width="369.62" height="369.62" rx="81.96"/><g id="Build-Icons"><g id="build-icons_Stable" data-name="build-icons/Stable"><g id="Logo"><path id="Head" class="cls-2" d="M286,118.36l6-14.71s-7.62-8.17-16.87-17.43-28.83-3.81-28.83-3.81L224,57.07H145.64l-22.3,25.34S103.75,77,94.51,86.22s-16.87,17.43-16.87,17.43l6,14.71L76,140.15s22.4,84.94,25,95.31c5.17,20.43,8.71,28.33,23.4,38.68s41.34,28.32,45.69,31,9.79,7.37,14.69,7.37,10.34-4.64,14.69-7.37,31-20.69,45.69-31,18.23-18.25,23.4-38.68c2.62-10.37,25-95.31,25-95.31Z"/><path id="Face" class="cls-3" d="M240,98.48s28.68,34.72,28.68,42.14-3.6,9.38-7.23,13.24L240,176.73c-2,2.16-6.28,5.45-3.78,11.35s6.16,13.42,2.08,21-11.1,12.71-15.58,11.87-15-6.36-18.91-8.88-16.16-12.66-16.16-16.54,12.7-10.85,15-12.44,13-7.71,13.26-10.11.14-3.11-3-9.06-8.85-13.87-7.9-19.15,10.12-8,16.67-10.5,19.14-7.14,20.72-7.87,1.16-1.42-3.61-1.87-18.3-2.25-24.4-.55-16.52,4.29-17.37,5.67-1.59,1.42-.72,6.15,5.33,27.48,5.77,31.52,1.28,6.71-3.07,7.7-11.67,2.73-14.19,2.73-9.84-1.73-14.19-2.73-3.5-3.66-3.07-7.7,4.9-26.78,5.77-31.52.12-4.78-.72-6.15-11.27-4-17.37-5.67-19.64.09-24.4.55-5.18,1.14-3.61,1.87,14.18,5.4,20.72,7.87,15.72,5.22,16.67,10.5S159.87,158,156.71,164s-3.24,6.65-3,9.06,10.92,8.53,13.26,10.11S182,191.69,182,195.57s-12.29,14-16.16,16.54-14.42,8-18.91,8.88-11.49-4.25-15.58-11.87-.41-15.13,2.08-21-1.74-9.19-3.78-11.35l-21.51-22.87c-3.63-3.86-7.23-5.82-7.23-13.24s28.68-42.14,28.68-42.14,24.21,4.63,27.48,4.63,10.33-2.73,16.86-4.9A38.6,38.6,0,0,1,184.81,96a38.6,38.6,0,0,1,10.88,2.2c6.53,2.17,13.6,4.9,16.86,4.9S240,98.48,240,98.48ZM218.52,231.3c1.78,1.11.69,3.21-.93,4.36s-23.35,18-25.46,19.86-5.21,4.94-7.32,4.94-5.21-3.08-7.32-4.94S153.64,236.8,152,235.66s-2.71-3.25-.93-4.36,7.33-3.92,15-7.89,17.22-7.35,18.71-7.35,11,3.38,18.71,7.35S216.74,230.19,218.52,231.3Z"/><g id="Top-Head"><path id="path-3" class="cls-4" d="M246.28,82.41,224,57.07H145.64l-22.3,25.34S103.75,77,94.51,86.22c0,0,26.11-2.36,35.08,12.26,0,0,24.21,4.63,27.48,4.63s10.33-2.73,16.86-4.9A38.6,38.6,0,0,1,184.81,96a38.6,38.6,0,0,1,10.88,2.2c6.53,2.17,13.6,4.9,16.86,4.9S240,98.48,240,98.48c9-14.62,35.08-12.26,35.08-12.26-9.24-9.26-28.83-3.81-28.83-3.81"/></g></g></g></g></g></g></svg>