<svg xmlns="http://www.w3.org/2000/svg" viewBox="0 0 369.62 369.62"><defs><style>.cls-1{fill:#fff;}</style></defs><g id="Layer_2" data-name="Layer 2"><g id="Layer_1-2" data-name="Layer 1"><rect class="cls-1" width="369.62" height="369.62" rx="81.96"/><path d="M101.27,98.49c8.27,6.72,11.37,6.21,26.9,5.17l146.39-8.79c3.1,0,.52-3.09-.52-3.61L249.73,73.69C245.07,70.07,238.87,65.93,227,67L85.23,77.3c-5.17.51-6.2,3.1-4.14,5.17Zm8.79,34.12v154c0,8.28,4.14,11.37,13.45,10.86l160.87-9.31c9.32-.51,10.36-6.2,10.36-12.93v-153c0-6.71-2.59-10.33-8.29-9.81l-168.12,9.81C112.13,122.79,110.06,125.89,110.06,132.61Zm158.82,8.26c1,4.66,0,9.31-4.67,9.83l-7.75,1.55V266c-6.73,3.62-12.93,5.69-18.11,5.69-8.28,0-10.35-2.59-16.55-10.34l-50.7-79.59v77l16,3.62s0,9.3-12.94,9.3l-35.69,2.07c-1-2.07,0-7.23,3.62-8.27l9.31-2.58V161l-12.93-1c-1-4.66,1.55-11.37,8.8-11.89l38.28-2.58,52.76,80.63V154.83l-13.45-1.54c-1-5.7,3.1-9.83,8.27-10.34ZM73.33,63.35,220.76,52.49c18.11-1.55,22.77-.51,34.15,7.75L302,93.32c7.77,5.69,10.35,7.24,10.35,13.44V288.18c0,11.37-4.14,18.1-18.62,19.12L122.48,317.65c-10.87.51-16-1-21.73-8.28l-34.66-45c-6.21-8.28-8.79-14.47-8.79-21.72V81.43C57.3,72.13,61.44,64.38,73.33,63.35Z"/></g></g></svg>