<svg xmlns="http://www.w3.org/2000/svg" xmlns:xlink="http://www.w3.org/1999/xlink" viewBox="0 0 369.62 369.62"><defs><style>.cls-1{fill:none;}.cls-2{fill:#d1d3d4;}.cls-3{fill:url(#radial-gradient);}.cls-4{fill:url(#radial-gradient-2);}.cls-5{fill:url(#radial-gradient-3);}.cls-6{clip-path:url(#clip-path);}.cls-7{fill:url(#radial-gradient-4);}.cls-8{clip-path:url(#clip-path-2);}.cls-9{fill:url(#radial-gradient-5);}.cls-10{fill:url(#radial-gradient-6);}</style><radialGradient id="radial-gradient" cx="205.28" cy="763.77" r="136.93" gradientTransform="matrix(1, 0, 0, -1, -18, 947.38)" gradientUnits="userSpaceOnUse"><stop offset="0.91"/><stop offset="1" stop-opacity="0"/></radialGradient><radialGradient id="radial-gradient-2" cx="204.61" cy="764.98" r="134.11" gradientTransform="matrix(1, 0, 0, -1, -18, 947.38)" gradientUnits="userSpaceOnUse"><stop offset="0.99" stop-color="#fff"/><stop offset="1" stop-color="#fdfdfd"/><stop offset="1" stop-color="#f6f6f6"/><stop offset="1" stop-color="#ebebeb"/><stop offset="1" stop-color="#dadada"/><stop offset="1" stop-color="#c7c7c7"/></radialGradient><radialGradient id="radial-gradient-3" cx="204.61" cy="764.98" r="122.49" gradientTransform="matrix(1, 0, 0, -1, -18, 947.38)" gradientUnits="userSpaceOnUse"><stop offset="0.99" stop-opacity="0.5"/><stop offset="1" stop-opacity="0"/></radialGradient><clipPath id="clip-path"><path class="cls-1" d="M64.12,182.4A122.49,122.49,0,1,0,186.61,59.92,122.49,122.49,0,0,0,64.12,182.4"/></clipPath><radialGradient id="radial-gradient-4" cx="186.61" cy="784.98" r="122.49" gradientTransform="matrix(1, 0, 0, -1, 0, 967.38)" xlink:href="#radial-gradient-3"/><clipPath id="clip-path-2"><path class="cls-1" d="M65.13,182.4A121.48,121.48,0,1,0,186.61,60.93,121.48,121.48,0,0,0,65.13,182.4"/></clipPath><radialGradient id="radial-gradient-5" cx="472.05" cy="-554" r="1.28" gradientTransform="translate(-44494.5 52621.38) scale(94.65)" gradientUnits="userSpaceOnUse"><stop offset="0"/><stop offset="1" stop-color="#322f32"/></radialGradient><radialGradient id="radial-gradient-6" cx="223.04" cy="707.96" r="97.61" gradientTransform="matrix(1, 0, 0, -1.1, -18, 948.41)" gradientUnits="userSpaceOnUse"><stop offset="0" stop-color="#c2c0c2"/><stop offset="1" stop-color="#ebebeb"/></radialGradient></defs><g id="Layer_2" data-name="Layer 2"><g id="Layer_1-2" data-name="Layer 1"><rect class="cls-2" width="369.62" height="369.62" rx="81.96"/><path class="cls-3" d="M187.28,46.68A136.93,136.93,0,1,1,50.35,183.61,136.94,136.94,0,0,1,187.28,46.68"/><path class="cls-4" d="M186.61,48.29A134.11,134.11,0,1,1,52.5,182.4,134.12,134.12,0,0,1,186.61,48.29"/><path class="cls-5" d="M64.12,182.4A122.49,122.49,0,1,0,186.61,59.92,122.49,122.49,0,0,0,64.12,182.4"/><g class="cls-6"><rect class="cls-7" x="64.12" y="59.92" width="244.97" height="244.97"/></g><g class="cls-8"><rect class="cls-9" x="65.13" y="60.93" width="242.95" height="242.95"/></g><path class="cls-10" d="M234.28,143.35a55,55,0,0,1-75,20.29l-1.44-.86a55.77,55.77,0,0,1-12.39-10.42,54.84,54.84,0,0,1-13.76-38.92c.08-1.6.21-3.19.42-4.78s.48-3.11.82-4.65.77-3.14,1.25-4.68,1-3,1.62-4.43,1.33-3,2.08-4.45,1.68-3,2.62-4.46,1.79-2.63,2.77-3.88,2.19-2.68,3.38-3.94,2.46-2.47,3.77-3.63,2.74-2.27,4.18-3.31c.74-.54,1.5-1,2.27-1.55a67.4,67.4,0,0,0-30.08,89.22c.15.31.3.62.46.93l.21.43a1.19,1.19,0,0,0,.13.25c.09.1.11.08.25.08.71,0,1.42,0,2.13,0,1.31,0,2.63.1,3.93.22A55,55,0,0,1,183,206.7a55.65,55.65,0,0,1,.18,16.6,54.86,54.86,0,0,1-12.73,28.09,55,55,0,0,1-48,18.83,57.85,57.85,0,0,1-6.4-1.11c-1.37-.32-2.72-.7-4.06-1.12A67.13,67.13,0,0,0,131,273.22a68,68,0,0,0,18.31-.22,67.24,67.24,0,0,0,30-12.38,68,68,0,0,0,16.48-17.4c.19-.29.38-.58.56-.88.08-.11.24-.29.22-.41a2.81,2.81,0,0,0-.29-.54c-.37-.69-.72-1.39-1.06-2.09q-1-2.13-1.86-4.34a55.19,55.19,0,0,1-2.56-29.61,55,55,0,0,1,53.63-44.76c1.34,0,2.69,0,4,.11s2.59.22,3.89.39,2.54.4,3.81.66,2.46.57,3.68.91,2.38.72,3.54,1.14,2.36.89,3.51,1.39,2.33,1.07,3.46,1.67,2.25,1.23,3.34,1.91,2,1.29,3,2,2,1.47,3,2.26,2,1.66,2.88,2.54,1.95,1.9,2.87,2.91,1.8,2,2.64,3.11,1.83,2.42,2.67,3.68,1.66,2.64,2.41,4a55.51,55.51,0,0,1,2.78,5.89,58.61,58.61,0,0,1,2.2,6.72,67.25,67.25,0,0,0-14.26-33.35A67.93,67.93,0,0,0,263.1,151.3a67.07,67.07,0,0,0-26.47-7.8c-.78-.06-1.57-.11-2.35-.15Z"/></g></g></svg>