<svg xmlns="http://www.w3.org/2000/svg" xmlns:xlink="http://www.w3.org/1999/xlink" viewBox="0 0 369.62 369.62"><defs><style>.cls-1,.cls-2{fill:#fff;}.cls-1,.cls-3,.cls-4,.cls-6,.cls-7,.cls-9{fill-rule:evenodd;}.cls-3{fill:#0b7ed0;}.cls-4{fill:#2cd4ed;}.cls-5{mask:url(#mask);}.cls-6{fill:#0db4e2;}.cls-7{fill:#3169ff;}.cls-8{mask:url(#mask-2);}.cls-9{fill:#3153ff;}</style><mask id="mask" x="46.23" y="75.41" width="233.39" height="218.81" maskUnits="userSpaceOnUse"><g id="b"><path id="a" class="cls-1" d="M115.52,155.64a69.29,69.29,0,0,1,69.29,69.29v69.28H115.52a69.29,69.29,0,1,1,0-138.57Z"/></g></mask><mask id="mask-2" x="89.99" y="75.41" width="233.39" height="218.81" maskUnits="userSpaceOnUse"><g id="d"><path id="c" class="cls-1" d="M184.81,294.21V224.93l0-2a69.29,69.29,0,1,1,69.26,71.25Z"/></g></mask></defs><g id="Layer_2" data-name="Layer 2"><g id="Layer_1-2" data-name="Layer 1"><rect class="cls-2" width="369.62" height="369.62" rx="81.96"/><path class="cls-3" d="M251.85,102.4a90.28,90.28,0,0,1,0,130.28c-1.24,1.2-2.5,2.37-3.78,3.49l-63.26,58-63.26-58c-1.28-1.12-2.55-2.29-3.79-3.49a90.3,90.3,0,0,1,0-130.28C154.79,66.42,214.83,66.42,251.85,102.4Z"/><path id="a-2" data-name="a" class="cls-4" d="M115.52,155.64a69.29,69.29,0,0,1,69.29,69.29v69.28H115.52a69.29,69.29,0,1,1,0-138.57Z"/><g class="cls-5"><path class="cls-6" d="M251.85,102.39a90.29,90.29,0,0,1,0,130.29q-1.86,1.8-3.78,3.49l-63.26,58-63.26-58c-1.28-1.13-2.55-2.29-3.79-3.49a90.31,90.31,0,0,1,0-130.29C154.79,66.41,214.83,66.41,251.85,102.39Z"/></g><path id="c-2" data-name="c" class="cls-7" d="M184.81,294.21V224.93l0-2a69.29,69.29,0,1,1,69.26,71.25Z"/><g class="cls-8"><path class="cls-9" d="M251.85,102.39a90.29,90.29,0,0,1,0,130.29q-1.86,1.8-3.78,3.49l-63.26,58-63.26-58c-1.28-1.13-2.55-2.29-3.79-3.49a90.31,90.31,0,0,1,0-130.29C154.79,66.41,214.83,66.41,251.85,102.39Z"/></g></g></g></svg>